<?xml version="1.0" encoding="utf-8"?>
<!-- Generator: Adobe Illustrator 22.0.1, SVG Export Plug-In . SVG Version: 6.00 Build 0)  -->
<svg version="1.1" id="Layer_1" xmlns="http://www.w3.org/2000/svg" xmlns:xlink="http://www.w3.org/1999/xlink" x="0px" y="0px"
	 viewBox="0 0 256.5 129.8" style="enable-background:new 0 0 256.5 129.8;" xml:space="preserve">
<style type="text/css">
	.st0{clip-path:url(#SVGID_2_);}
	.st1{clip-path:url(#SVGID_4_);fill:#FFFFFF;}
	.st2{clip-path:url(#SVGID_6_);}
	.st3{clip-path:url(#SVGID_8_);fill:#FFFFFF;}
	.st4{clip-path:url(#SVGID_10_);}
	.st5{clip-path:url(#SVGID_12_);fill:#FFFFFF;}
	.st6{clip-path:url(#SVGID_14_);}
	.st7{clip-path:url(#SVGID_16_);fill:#FFFFFF;}
	.st8{clip-path:url(#SVGID_18_);}
	.st9{clip-path:url(#SVGID_20_);fill:#FFFFFF;}
	.st10{clip-path:url(#SVGID_22_);}
	.st11{clip-path:url(#SVGID_24_);fill:#FFFFFF;}
</style>
<g>
	<defs>
		<path id="SVGID_1_" d="M496.3-576.1l0.9-7.8h0.2l0.9,7.8H496.3z M494.2-591.9l-3.6,24h4.8l0.4-3.9h3l0.4,3.9h5l-3.6-24H494.2z
			 M471.3-576.1l0.9-7.8h0.2l0.9,7.8H471.3z M469.2-591.9l-3.6,24h4.8l0.4-3.9h3l0.4,3.9h5l-3.6-24H469.2z M432.1-580.8h-0.3
			l-1.1-11.1h-3.6l-1.1,11.1h-0.3l-1.1-11.1H420l2.9,24h4.5l1.3-10.4h0.2l1.3,10.4h4.6l2.9-24h-4.4L432.1-580.8z M524.1-587.5h1.1
			c0.4,0,0.8,0.3,0.8,0.9v13.7c0,0.6-0.4,0.9-0.8,0.9h-1.1V-587.5z M519.1-567.9h8.7l3.1-3.4v-17.3l-3.1-3.4h-8.7V-567.9z
			 M512.5-582.1h-0.3l-2.1-9.7h-4.8v24h4.7v-10.3h0.3l2.5,10.3h4.3v-24h-4.7V-582.1z M480.5-591.9v24h9v-4.6h-4v-19.4H480.5z
			 M455-567.9h9.4v-4.6H460v-5.2h4v-4.6h-4v-4.9h4.4v-4.6H455V-567.9z M443.2-587.3h4.8l-4.8,15.1v4.2h10.2v-4.6h-4.7l4.7-15v-4.3
			h-10.2V-587.3z M409.1-567.9h9.5v-4.6h-4.5v-5.2h4.1v-4.6h-4.1v-4.9h4.5v-4.6h-9.5V-567.9z M402.6-582.1h-0.3l-2.1-9.7h-4.8v24
			h4.7v-10.3h0.3l2.5,10.3h4.3v-24h-4.7V-582.1z M380.6-567.9h9.4v-4.6h-4.5v-5.2h4.1v-4.6h-4.1v-4.9h4.5v-4.6h-9.4V-567.9z
			 M373.6-582.5c0,0.6-0.4,0.9-0.8,0.9h-1v-5.9h1c0.4,0,0.8,0.3,0.8,0.9V-582.5z M378.6-588.5l-3.1-3.4h-8.7v24h5v-9.2h1
			c0.4,0,0.8,0.3,0.8,0.9v6l0.3,2.3h5l-0.3-2.6v-6.6l-2.2-2.3l2.2-2.3V-588.5z M353-591.9v20.6l3.1,3.4h5.6l3.1-3.4v-20.6h-5v18.8
			c0,0.6-0.4,1-0.8,1h-0.4c-0.4,0-0.8-0.4-0.8-1v-18.8H353z M346.4-581.5c0,0.6-0.4,0.9-0.8,0.9h-1v-6.9h1c0.4,0,0.8,0.3,0.8,0.9
			V-581.5z M339.5-591.9v24h5v-8.5h3.7l3.1-3.4v-8.8l-3.1-3.4H339.5z M308-586.7c0-0.6,0.4-1,0.8-1h0.4c0.4,0,0.8,0.4,0.8,1v13.5
			c0,0.6-0.4,1-0.8,1h-0.4c-0.4,0-0.8-0.4-0.8-1V-586.7z M311.8-567.9l3.1-3.4v-17.3l-3.1-3.4h-5.6l-3.1,3.4v17.3l3.1,3.4H311.8z
			 M296.1-573.1c0,0.6-0.4,1-0.8,1h-0.4c-0.4,0-0.8-0.4-0.8-1v-13.5c0-0.6,0.4-1,0.8-1h0.4c0.4,0,0.8,0.4,0.8,1V-573.1z
			 M292.3-591.9l-3.1,3.4v17.3l3.1,3.4h5.6l3.1-3.4v-17.3l-3.1-3.4H292.3z M282.2-567.9h5v-24h-2.6l-1.7,1.8H280v4.7h2.2V-567.9z
			 M317.9-567.5l-0.3,0.1l0.1,0.5l-0.5,0.7l0.2,0.1l1.1-0.3l0.2-0.5l-0.2-0.1L317.9-567.5z M333.8-569.8v-6.4l-1.9-1.9h-3.1
			l-1.9,1.9v6.4l1.9,1.9h3.1L333.8-569.8z M330.9-571.4c0,0.5-0.2,0.9-0.5,0.9c-0.4,0-0.5-0.3-0.5-0.9v-3.2c0-0.5,0.2-0.9,0.5-0.9
			c0.4,0,0.5,0.3,0.5,0.9V-571.4z M321-568.9l0.5-0.2v-0.5l0.6-1.5l0.5-1.6l0.7-0.7l0.7,0.2l0.4-0.1l0.1-0.4l-0.4-0.6l0.2-0.4l0.7-1
			l0.1-0.7l0.4-0.2l0.4-1.2l-0.1-0.4l0.1-0.4l-0.1-0.2l0.1-0.5l-0.5-0.2l-0.9,0.6v-0.5l-0.3-0.2l-0.2,0.1v-0.1l0.1-0.3l0.1-0.2
			l-0.1-0.3l-1,0.9l-0.4,1.6l-0.6,0.5l-0.4,1.5l-2.7,2.8l-0.9,0.3l-1.2,1.8l-0.8,2l0.4,0.7l0.9-0.3l0.3,0.4h0.5v0.3l0.9,0.1l0.9-0.5
			L321-568.9z M316.5-589.9v6.4l1.9,1.9h3.1l1.9-1.9v-6.4l-1.9-1.9h-3.1L316.5-589.9z M319.4-588.3c0-0.5,0.2-0.9,0.5-0.9
			c0.4,0,0.5,0.3,0.5,0.9v3.2c0,0.5-0.2,0.9-0.5,0.9c-0.4,0-0.5-0.3-0.5-0.9V-588.3z M331.8-585.5l0.2-0.9l-0.5-0.6l-1.5,1l-1.1-0.4
			l-0.5-1.9l-0.8,0.1l0.1,1l-0.2,0.2l-0.5-0.9l0.2-0.8l-0.4-1.3l-1.2-1.1h-0.8l-0.7-1.1l-0.6,0.4l0.9,1.1v0.4l2.4,4l-0.1,1.3
			l-0.4,1.4l-1,0.8v0.6l1.5,0.8l0.4,0.7l-0.9,1.8l0.3,0.4h0.5l0.3,0.4l0.7-0.5l1.2-2l0.6-1.5l-0.2-0.4l0.4-0.9h0.6l0.1,0.4l0.5-0.3
			v-0.9l0.4-0.3L331.8-585.5z"/>
	</defs>
	<clipPath id="SVGID_2_">
		<use xlink:href="#SVGID_1_"  style="overflow:visible;"/>
	</clipPath>
	<g class="st0">
		<defs>
			<rect id="SVGID_3_" x="-309.3" y="-748.4" width="887.6" height="1578.7"/>
		</defs>
		<clipPath id="SVGID_4_">
			<use xlink:href="#SVGID_3_"  style="overflow:visible;"/>
		</clipPath>
		<rect x="268.2" y="-604" class="st1" width="274.6" height="49.7"/>
	</g>
</g>
<g>
	<defs>
		<path id="SVGID_5_" d="M384-606.1c-0.2-0.1-0.7-0.1-0.8,0c-0.1,0.1,0,0.3,0,0.5c0,0.1,0.1,0.2,0.1,0.2v0.5l-0.9,1.2
			c-0.1,0.1-0.2,0.2-0.1,0.3c-0.1,0.1,0.1,0.2,0.1,0.2h0.1l2.4-0.6c0.1,0,0.1-0.1,0.2-0.2c0.1-0.2,0.2-0.5,0.3-0.7
			c0-0.1,0-0.2-0.1-0.3C384.9-605.4,384.4-605.7,384-606.1L384-606.1z M431.4-661.2c-0.1-0.2-0.4-0.2-0.5-0.4
			c-0.1-0.3-0.4-0.3-0.7-0.4h-0.1c-0.2-0.3-0.6-0.3-0.8-0.2c-0.4,0.1-1,0-1.3,0.5h-0.1c-0.3,0.2-0.6,0.3-0.8,0.5
			c-0.2,0.3-0.6,0.3-0.9,0.5c-0.2,0.2-0.5,0.3-0.8,0.5c-0.2,0.1-0.3,0.2-0.5,0.2c-0.4,0.1-0.8,0.1-1.2-0.2c-0.2-0.1-0.4-0.2-0.6-0.2
			c-0.5-0.1-0.9-0.3-1.3-0.5c-0.2-0.1-0.3-0.3-0.4-0.5c-0.1-0.4-0.2-0.9-0.3-1.3c-0.3-1.1-0.5-2.2-0.8-3.3c-0.1-0.6-0.4-0.8-1-0.7
			c-0.4,0.1-0.8,0.1-1.2,0.2c-0.2,0-0.3,0.1-0.3,0.3v1.6c0.1,0.6-0.2,0.9-0.7,1.2l-0.1-0.1c-0.4-0.6-0.7-1.2-1.1-1.9
			c-0.1-0.2-0.2-0.4-0.1-0.5c0-0.4,0.2-0.7,0.2-1.1c0.1-0.4,0.2-0.8,0.1-1.2c-0.1-0.7-0.2-1.3-0.3-2c-0.1-0.4-0.1-0.7-0.2-1.1
			c-0.1-0.6-0.3-1.1-0.8-1.5c-0.4-0.2-0.7-0.5-1-0.8c-0.3-0.2-0.5-0.5-0.7-0.8c-0.1-0.2-0.2-0.4-0.4-0.5c-0.2-0.2-0.4-0.4-0.7-0.5
			c-0.4-0.2-0.8-0.1-1.3-0.1H409c-0.1,0-0.1-0.3-0.1-0.4c0-0.1,0-0.1-0.1-0.2c0.1-0.2,0-0.6-0.3-0.9c-0.4-0.5-0.5-1.1-1-1.5
			c-0.2-0.2-0.7-0.2-0.9,0.1c-0.1,0.3-0.3,0.4-0.6,0.5c-0.4,0.2-0.5,0.4-0.2,0.8c0.2,0.2,0.4,0.5,0.6,0.7c0.4,0.3,0.7,0.7,1.1,1.1
			c0.2,0.2,0.5,0.4,0.5,0.7c0.1,0.3,0.1,0.7,0.1,1v0.4c0.2,0.4,0.4,0.8,0.6,1.1c0.4,0.7,1,1.3,1.2,2.1c0,0.1,0.1,0.1,0.1,0.2
			c0.3,0.5,0.7,0.9,0.9,1.5c0.1,0.3,0.3,0.6,0.4,0.8s0.3,0.3,0.4,0.5l0.1,0.1c0.2,1,0.9,1.7,1.3,2.6c0.1,0.3,0.3,0.6,0.5,0.9
			c0.2,0.3,0.4,0.7,0.6,1c0.4,0.5,0.6,1.1,0.4,1.8l-0.3,2.1c-0.1,0.5-0.2,1.1-0.4,1.6c-0.3,0.7-0.6,1.5-0.9,2.2
			c-0.1,0.3-0.1,0.7-0.6,0.8c0,0-0.1,0.1-0.1,0.2c0,0.1-0.1,0.2-0.2,0.2c-0.4,0.2-0.8,0.5-1.2,0.7l-0.6,0.3
			c-0.3,0.2-0.5,0.5-0.8,0.7c-0.1,0.1-0.2,0.3-0.2,0.4c0,0.2-0.1,0.4,0,0.6c0,0.3,0,0.7,0.1,1c0.2,0.3,0.6,0.6,0.9,0.9
			c0.2,0.1,0.4,0.2,0.7,0.3c0.2,0.1,0.4,0.2,0.7,0.4c0.4,0.3,1,0.3,1.4,0.7c0.2,0.2,0.6,0.3,0.7,0.7c0.5,0.3,0.7,0.8,0.9,1.3
			c0.1,0.1,0.1,0.4,0.1,0.5c-0.1,0.4-0.3,0.7-0.5,1c-0.2,0.4-0.6,0.8-0.7,1.3c0,0,0,0.1-0.1,0.1l-0.6,0.9c-0.1,0.1-0.1,0.3-0.2,0.4
			c0,0.1-0.1,0.2-0.1,0.3c0,0.1-0.1,0.1-0.1,0.1c-0.3,0.6-0.3,1.2,0,1.8c0.1,0.3,0.3,0.5,0.6,0.4c0.3,0,0.5,0,0.8-0.1
			c0.4,0,0.8,0,1,0.4c0.1,0.3,0.3,0.4,0.7,0.3c0.6-0.2,1.1-0.4,1.7-0.7c0.2-0.1,0.4-0.2,0.4-0.3c0.3-0.7,0.9-1,1.1-1.7
			c0.3-0.4,0.5-0.7,0.8-1.1c0.3-0.4,0.6-0.9,0.9-1.3c0.2-0.2,0.4-0.5,0.5-0.7c0.3-0.4,0.5-0.9,0.8-1.4c0.3-0.5,0.6-1.1,0.9-1.6
			c0.3-0.5,0.5-1.1,0.8-1.6c0.1-0.2,0.1-0.4,0-0.7c-0.1-0.3-0.3-0.6-0.3-0.9c0.1-0.8,0.6-1.5,1-2.2c0-0.1,0.2-0.1,0.3-0.1
			c0.5,0,1.1,0,1.6,0.1c0.4,0,0.6,0.2,0.4,0.5c0.1,0.1,0.2,0.1,0.2,0.2c0.1,0.3,0.3,0.3,0.5,0.3c0.2-0.1,0.4-0.1,0.6-0.2
			c0.4-0.2,0.6-0.5,0.5-0.9v-1.1c0-0.6,0.2-1,0.8-1.3c0.5-0.2,0.8-0.5,0.9-1c0.1-0.6,0.2-1.1,0.4-1.7c0.3-0.8,0.6-1.7,0.9-2.4
			C431.8-660.4,431.7-660.8,431.4-661.2L431.4-661.2z M410.4-640.6c-0.5-0.2-0.9-0.4-1.3,0.1c-0.2,0.2-0.5,0.5-0.9,0.4h-0.1
			l-0.9,0.6c-0.1,0.1-0.3,0.1-0.4,0.1c-0.1-0.1-0.1-0.3-0.1-0.4c0.2-0.6-0.1-1.3-0.9-1.3c-0.2,0-0.3-0.1-0.3-0.3
			c0.1-0.3,0.1-0.6,0.2-0.9c0.1-0.3-0.1-0.5-0.2-0.7c-0.3,0.1-0.6,0.2-0.8,0.4c-0.5,0.3-0.9,0.5-1.3,0.8c-0.2,0.1-0.4,0.2-0.6,0.4
			c-0.4,0.5-0.7,1-0.8,1.6c0,0.1,0,0.2-0.1,0.3l-0.3,0.9c-0.1,0.6-0.3,1.1-0.6,1.6c-0.1,0.1-0.1,0.3-0.1,0.4c0,0.1,0,0.3-0.1,0.3
			c-0.4,0.3-0.8,0.5-1.2,0.7c-0.5,0.2-0.8,0.6-0.9,1.1c-0.2,0.7-0.3,1.4-0.5,2.1c-0.1,0.7-0.3,1.3-0.5,1.9c0,0.1,0,0.3-0.1,0.4
			c-0.4,0.1-0.6,0.4-0.8,0.7c-0.2,0.2-0.4,0.4-0.7,0.5c-0.4,0.3-0.7,0.6-1,1c-0.4,0.4-0.9,0.7-1.3,1.1l-0.9,0.9
			c-0.3,0.2-0.6,0.4-0.9,0.7c-0.4,0.4-0.9,0.8-1.3,1.2c-0.4,0.3-0.8,0.6-1.1,1c-0.2,0.2-0.3,0.4-0.6,0.5c-0.2,0.1-0.4,0.2-0.6,0.2
			c-0.4,0-0.7,0.2-1.1,0.3c-0.2,0.1-0.4,0.1-0.6,0.1h-0.4c0,0-0.1,0.2-0.2,0.2c-0.5,0.4-0.9,0.9-1.1,1.5c-0.1,0.2-0.2,0.4-0.3,0.5
			c-0.3,0.1-0.4,0.4-0.6,0.6c-0.2,0.3-0.5,0.6-0.6,1c0,0,0,0.1-0.1,0.1l-0.6,0.6c-0.3,0.3-0.3,0.7-0.7,0.9c-0.1,0-0.1,0.2-0.1,0.3
			c0.1,0.3-0.1,0.6-0.2,0.8c-0.2,0.4-0.6,0.7-0.6,1.2c0,0,0,0.1-0.1,0.1c-0.4,0.2-0.5,0.6-0.6,0.9c-0.4,0.6-0.7,1.2-0.9,1.8
			c-0.1,0.3-0.2,0.6,0.1,1s0.6,0.9,0.9,1.3c0.1,0.2,0.3,0.4,0.6,0.3c0.7-0.2,1.4-0.3,2.1-0.5c0.1,0,0.3-0.1,0.4-0.1s0.2,0,0.2,0.1
			l0.3,0.6c0.1,0.3,0.3,0.4,0.6,0.4c0.3,0,0.5,0,0.8-0.1c0.3,0,0.4,0.1,0.4,0.3c0.1,0.2,0.1,0.4,0.2,0.6c0.1,0.2,0.2,0.3,0.4,0.2
			c0.2-0.1,0.7-0.1,1.1,0c0.4,0,0.7,0.1,1.1,0.2h0.1c0.5-0.2,1-0.5,1.5-0.8c0.4-0.2,0.7-0.6,1.2-0.5c0.1,0,0.2,0,0.2-0.1
			c0.2-0.2,0.5-0.4,0.7-0.7c0.2-0.4,0.6-0.5,0.9-0.8l0.6-0.6c0.1-0.1,0.3-0.3,0.5-0.3c0.3-0.1,0.7-0.2,1-0.2v-0.1
			c0-0.2-0.2-0.3,0.1-0.4c0,0.1,0,0.2,0.1,0.3h0.1c0-0.1-0.1-0.2-0.1-0.3c0-0.1-0.1-0.1,0-0.2c0.1-0.2,0.2-0.5,0.3-0.7
			c0-0.2,0-0.3,0.1-0.5h-0.1c0.2-0.2,0.3-0.4,0.5-0.7c0.2-0.3,0.3-0.6,0.5-0.9c0.2-0.4,0.4-0.7,0.6-1.1c0.4-0.8,0.7-1.6,1.1-2.5
			l0.6-1.8c0.1-0.2,0.2-0.5,0.2-0.7c0-0.4,0.2-0.8,0.3-1.1c0-0.1,0.1-0.3,0.3-0.4c0.4-0.2,0.5-0.8,1-1v-0.1c0.2-0.1,0.3-0.3,0.5-0.4
			c0.1-0.1,0.3-0.2,0.5-0.2h0.4l0.9,0.3l1.2,0.3c0.3,0,0.6,0.1,0.9,0c0.5-0.1,0.8-0.6,0.7-1.1c0-0.3-0.1-0.6-0.4-0.7
			c-0.3,0-0.3-0.2-0.3-0.4c-0.1-0.2-0.1-0.4-0.3-0.5c0,0-0.1-0.1-0.1-0.2c0.1-0.4,0.3-0.8,0.4-1.1c0.3-0.5,0.7-1,1.1-1.4
			c0.2-0.2,0.4-0.3,0.5-0.5c0.1-0.3,0.3-0.5,0.6-0.6c0.1-0.1,0.3-0.2,0.2-0.5v-0.2c0.1-0.3,0.2-0.7,0.2-1v-0.5
			c0.1-0.2,0.1-0.4,0.4-0.4c0.3,0,0.5-0.1,0.8-0.1c0,0,0.1,0,0.1-0.1c0.3-0.4,0.5-0.8,0.8-1.2c0.2-0.3,0.3-0.6,0.6-0.9
			c0.3-0.4,0.4-0.8,0.4-1.3c0.1-0.6,0.1-1.3,0.1-1.9v-0.1c0.1-0.5,0.2-1,0.2-1.5v-0.1C411.3-640,410.9-640.4,410.4-640.6
			L410.4-640.6z"/>
	</defs>
	<clipPath id="SVGID_6_">
		<use xlink:href="#SVGID_5_"  style="overflow:visible;"/>
	</clipPath>
	<g class="st2">
		<defs>
			<rect id="SVGID_7_" x="-402.1" y="-733.3" width="887.6" height="1578.7"/>
		</defs>
		<clipPath id="SVGID_8_">
			<use xlink:href="#SVGID_7_"  style="overflow:visible;"/>
		</clipPath>
		<rect x="367.4" y="-690.7" class="st3" width="76.2" height="99.3"/>
	</g>
</g>
<g>
	<defs>
		<path id="SVGID_9_" d="M496.3-576.1l0.9-7.8h0.2l0.9,7.8H496.3z M494.2-591.9l-3.6,24h4.8l0.4-3.9h3l0.4,3.9h5l-3.6-24H494.2z
			 M471.3-576.1l0.9-7.8h0.2l0.9,7.8H471.3z M469.2-591.9l-3.6,24h4.8l0.4-3.9h3l0.4,3.9h5l-3.6-24H469.2z M432.1-580.8h-0.3
			l-1.1-11.1h-3.6l-1.1,11.1h-0.3l-1.1-11.1H420l2.9,24h4.5l1.3-10.4h0.2l1.3,10.4h4.6l2.9-24h-4.4L432.1-580.8z M524.1-587.5h1.1
			c0.4,0,0.8,0.3,0.8,0.9v13.7c0,0.6-0.4,0.9-0.8,0.9h-1.1V-587.5z M519.1-567.9h8.7l3.1-3.4v-17.3l-3.1-3.4h-8.7V-567.9z
			 M512.5-582.1h-0.3l-2.1-9.7h-4.8v24h4.7v-10.3h0.3l2.5,10.3h4.3v-24h-4.7V-582.1z M480.5-591.9v24h9v-4.6h-4v-19.4H480.5z
			 M455-567.9h9.4v-4.6H460v-5.2h4v-4.6h-4v-4.9h4.4v-4.6H455V-567.9z M443.2-587.3h4.8l-4.8,15.1v4.2h10.2v-4.6h-4.7l4.7-15v-4.3
			h-10.2V-587.3z M409.1-567.9h9.5v-4.6h-4.5v-5.2h4.1v-4.6h-4.1v-4.9h4.5v-4.6h-9.5V-567.9z M402.6-582.1h-0.3l-2.1-9.7h-4.8v24
			h4.7v-10.3h0.3l2.5,10.3h4.3v-24h-4.7V-582.1z M380.6-567.9h9.4v-4.6h-4.5v-5.2h4.1v-4.6h-4.1v-4.9h4.5v-4.6h-9.4V-567.9z
			 M373.6-582.5c0,0.6-0.4,0.9-0.8,0.9h-1v-5.9h1c0.4,0,0.8,0.3,0.8,0.9V-582.5z M378.6-588.5l-3.1-3.4h-8.7v24h5v-9.2h1
			c0.4,0,0.8,0.3,0.8,0.9v6l0.3,2.3h5l-0.3-2.6v-6.6l-2.2-2.3l2.2-2.3V-588.5z M353-591.9v20.6l3.1,3.4h5.6l3.1-3.4v-20.6h-5v18.8
			c0,0.6-0.4,1-0.8,1h-0.4c-0.4,0-0.8-0.4-0.8-1v-18.8H353z M346.4-581.5c0,0.6-0.4,0.9-0.8,0.9h-1v-6.9h1c0.4,0,0.8,0.3,0.8,0.9
			V-581.5z M339.5-591.9v24h5v-8.5h3.7l3.1-3.4v-8.8l-3.1-3.4H339.5z M308-586.7c0-0.6,0.4-1,0.8-1h0.4c0.4,0,0.8,0.4,0.8,1v13.5
			c0,0.6-0.4,1-0.8,1h-0.4c-0.4,0-0.8-0.4-0.8-1V-586.7z M311.8-567.9l3.1-3.4v-17.3l-3.1-3.4h-5.6l-3.1,3.4v17.3l3.1,3.4H311.8z
			 M296.1-573.1c0,0.6-0.4,1-0.8,1h-0.4c-0.4,0-0.8-0.4-0.8-1v-13.5c0-0.6,0.4-1,0.8-1h0.4c0.4,0,0.8,0.4,0.8,1V-573.1z
			 M292.3-591.9l-3.1,3.4v17.3l3.1,3.4h5.6l3.1-3.4v-17.3l-3.1-3.4H292.3z M282.2-567.9h5v-24h-2.6l-1.7,1.8H280v4.7h2.2V-567.9z
			 M317.9-567.5l-0.3,0.1l0.1,0.5l-0.5,0.7l0.2,0.1l1.1-0.3l0.2-0.5l-0.2-0.1L317.9-567.5z M333.8-569.8v-6.4l-1.9-1.9h-3.1
			l-1.9,1.9v6.4l1.9,1.9h3.1L333.8-569.8z M330.9-571.4c0,0.5-0.2,0.9-0.5,0.9c-0.4,0-0.5-0.3-0.5-0.9v-3.2c0-0.5,0.2-0.9,0.5-0.9
			c0.4,0,0.5,0.3,0.5,0.9V-571.4z M321-568.9l0.5-0.2v-0.5l0.6-1.5l0.5-1.6l0.7-0.7l0.7,0.2l0.4-0.1l0.1-0.4l-0.4-0.6l0.2-0.4l0.7-1
			l0.1-0.7l0.4-0.2l0.4-1.2l-0.1-0.4l0.1-0.4l-0.1-0.2l0.1-0.5l-0.5-0.2l-0.9,0.6v-0.5l-0.3-0.2l-0.2,0.1v-0.1l0.1-0.3l0.1-0.2
			l-0.1-0.3l-1,0.9l-0.4,1.6l-0.6,0.5l-0.4,1.5l-2.7,2.8l-0.9,0.3l-1.2,1.8l-0.8,2l0.4,0.7l0.9-0.3l0.3,0.4h0.5v0.3l0.9,0.1l0.9-0.5
			L321-568.9z M316.5-589.9v6.4l1.9,1.9h3.1l1.9-1.9v-6.4l-1.9-1.9h-3.1L316.5-589.9z M319.4-588.3c0-0.5,0.2-0.9,0.5-0.9
			c0.4,0,0.5,0.3,0.5,0.9v3.2c0,0.5-0.2,0.9-0.5,0.9c-0.4,0-0.5-0.3-0.5-0.9V-588.3z M331.8-585.5l0.2-0.9l-0.5-0.6l-1.5,1l-1.1-0.4
			l-0.5-1.9l-0.8,0.1l0.1,1l-0.2,0.2l-0.5-0.9l0.2-0.8l-0.4-1.3l-1.2-1.1h-0.8l-0.7-1.1l-0.6,0.4l0.9,1.1v0.4l2.4,4l-0.1,1.3
			l-0.4,1.4l-1,0.8v0.6l1.5,0.8l0.4,0.7l-0.9,1.8l0.3,0.4h0.5l0.3,0.4l0.7-0.5l1.2-2l0.6-1.5l-0.2-0.4l0.4-0.9h0.6l0.1,0.4l0.5-0.3
			v-0.9l0.4-0.3L331.8-585.5z"/>
	</defs>
	<clipPath id="SVGID_10_">
		<use xlink:href="#SVGID_9_"  style="overflow:visible;"/>
	</clipPath>
	<g class="st4">
		<defs>
			<rect id="SVGID_11_" x="-309.3" y="-748.4" width="887.6" height="1578.7"/>
		</defs>
		<clipPath id="SVGID_12_">
			<use xlink:href="#SVGID_11_"  style="overflow:visible;"/>
		</clipPath>
		<rect x="268.2" y="-604" class="st5" width="274.6" height="49.7"/>
	</g>
</g>
<g>
	<defs>
		<path id="SVGID_13_" d="M384-606.1c-0.2-0.1-0.7-0.1-0.8,0c-0.1,0.1,0,0.3,0,0.5c0,0.1,0.1,0.2,0.1,0.2v0.5l-0.9,1.2
			c-0.1,0.1-0.2,0.2-0.1,0.3c-0.1,0.1,0.1,0.2,0.1,0.2h0.1l2.4-0.6c0.1,0,0.1-0.1,0.2-0.2c0.1-0.2,0.2-0.5,0.3-0.7
			c0-0.1,0-0.2-0.1-0.3C384.9-605.4,384.4-605.7,384-606.1L384-606.1z M431.4-661.2c-0.1-0.2-0.4-0.2-0.5-0.4
			c-0.1-0.3-0.4-0.3-0.7-0.4h-0.1c-0.2-0.3-0.6-0.3-0.8-0.2c-0.4,0.1-1,0-1.3,0.5h-0.1c-0.3,0.2-0.6,0.3-0.8,0.5
			c-0.2,0.3-0.6,0.3-0.9,0.5c-0.2,0.2-0.5,0.3-0.8,0.5c-0.2,0.1-0.3,0.2-0.5,0.2c-0.4,0.1-0.8,0.1-1.2-0.2c-0.2-0.1-0.4-0.2-0.6-0.2
			c-0.5-0.1-0.9-0.3-1.3-0.5c-0.2-0.1-0.3-0.3-0.4-0.5c-0.1-0.4-0.2-0.9-0.3-1.3c-0.3-1.1-0.5-2.2-0.8-3.3c-0.1-0.6-0.4-0.8-1-0.7
			c-0.4,0.1-0.8,0.1-1.2,0.2c-0.2,0-0.3,0.1-0.3,0.3v1.6c0.1,0.6-0.2,0.9-0.7,1.2l-0.1-0.1c-0.4-0.6-0.7-1.2-1.1-1.9
			c-0.1-0.2-0.2-0.4-0.1-0.5c0-0.4,0.2-0.7,0.2-1.1c0.1-0.4,0.2-0.8,0.1-1.2c-0.1-0.7-0.2-1.3-0.3-2c-0.1-0.4-0.1-0.7-0.2-1.1
			c-0.1-0.6-0.3-1.1-0.8-1.5c-0.4-0.2-0.7-0.5-1-0.8c-0.3-0.2-0.5-0.5-0.7-0.8c-0.1-0.2-0.2-0.4-0.4-0.5c-0.2-0.2-0.4-0.4-0.7-0.5
			c-0.4-0.2-0.8-0.1-1.3-0.1H409c-0.1,0-0.1-0.3-0.1-0.4c0-0.1,0-0.1-0.1-0.2c0.1-0.2,0-0.6-0.3-0.9c-0.4-0.5-0.5-1.1-1-1.5
			c-0.2-0.2-0.7-0.2-0.9,0.1c-0.1,0.3-0.3,0.4-0.6,0.5c-0.4,0.2-0.5,0.4-0.2,0.8c0.2,0.2,0.4,0.5,0.6,0.7c0.4,0.3,0.7,0.7,1.1,1.1
			c0.2,0.2,0.5,0.4,0.5,0.7c0.1,0.3,0.1,0.7,0.1,1v0.4c0.2,0.4,0.4,0.8,0.6,1.1c0.4,0.7,1,1.3,1.2,2.1c0,0.1,0.1,0.1,0.1,0.2
			c0.3,0.5,0.7,0.9,0.9,1.5c0.1,0.3,0.3,0.6,0.4,0.8s0.3,0.3,0.4,0.5l0.1,0.1c0.2,1,0.9,1.7,1.3,2.6c0.1,0.3,0.3,0.6,0.5,0.9
			c0.2,0.3,0.4,0.7,0.6,1c0.4,0.5,0.6,1.1,0.4,1.8l-0.3,2.1c-0.1,0.5-0.2,1.1-0.4,1.6c-0.3,0.7-0.6,1.5-0.9,2.2
			c-0.1,0.3-0.1,0.7-0.6,0.8c0,0-0.1,0.1-0.1,0.2c0,0.1-0.1,0.2-0.2,0.2c-0.4,0.2-0.8,0.5-1.2,0.7l-0.6,0.3
			c-0.3,0.2-0.5,0.5-0.8,0.7c-0.1,0.1-0.2,0.3-0.2,0.4c0,0.2-0.1,0.4,0,0.6c0,0.3,0,0.7,0.1,1c0.2,0.3,0.6,0.6,0.9,0.9
			c0.2,0.1,0.4,0.2,0.7,0.3c0.2,0.1,0.4,0.2,0.7,0.4c0.4,0.3,1,0.3,1.4,0.7c0.2,0.2,0.6,0.3,0.7,0.7c0.5,0.3,0.7,0.8,0.9,1.3
			c0.1,0.1,0.1,0.4,0.1,0.5c-0.1,0.4-0.3,0.7-0.5,1c-0.2,0.4-0.6,0.8-0.7,1.3c0,0,0,0.1-0.1,0.1l-0.6,0.9c-0.1,0.1-0.1,0.3-0.2,0.4
			c0,0.1-0.1,0.2-0.1,0.3c0,0.1-0.1,0.1-0.1,0.1c-0.3,0.6-0.3,1.2,0,1.8c0.1,0.3,0.3,0.5,0.6,0.4c0.3,0,0.5,0,0.8-0.1
			c0.4,0,0.8,0,1,0.4c0.1,0.3,0.3,0.4,0.7,0.3c0.6-0.2,1.1-0.4,1.7-0.7c0.2-0.1,0.4-0.2,0.4-0.3c0.3-0.7,0.9-1,1.1-1.7
			c0.3-0.4,0.5-0.7,0.8-1.1c0.3-0.4,0.6-0.9,0.9-1.3c0.2-0.2,0.4-0.5,0.5-0.7c0.3-0.4,0.5-0.9,0.8-1.4c0.3-0.5,0.6-1.1,0.9-1.6
			c0.3-0.5,0.5-1.1,0.8-1.6c0.1-0.2,0.1-0.4,0-0.7c-0.1-0.3-0.3-0.6-0.3-0.9c0.1-0.8,0.6-1.5,1-2.2c0-0.1,0.2-0.1,0.3-0.1
			c0.5,0,1.1,0,1.6,0.1c0.4,0,0.6,0.2,0.4,0.5c0.1,0.1,0.2,0.1,0.2,0.2c0.1,0.3,0.3,0.3,0.5,0.3c0.2-0.1,0.4-0.1,0.6-0.2
			c0.4-0.2,0.6-0.5,0.5-0.9v-1.1c0-0.6,0.2-1,0.8-1.3c0.5-0.2,0.8-0.5,0.9-1c0.1-0.6,0.2-1.1,0.4-1.7c0.3-0.8,0.6-1.7,0.9-2.4
			C431.8-660.4,431.7-660.8,431.4-661.2L431.4-661.2z M410.4-640.6c-0.5-0.2-0.9-0.4-1.3,0.1c-0.2,0.2-0.5,0.5-0.9,0.4h-0.1
			l-0.9,0.6c-0.1,0.1-0.3,0.1-0.4,0.1c-0.1-0.1-0.1-0.3-0.1-0.4c0.2-0.6-0.1-1.3-0.9-1.3c-0.2,0-0.3-0.1-0.3-0.3
			c0.1-0.3,0.1-0.6,0.2-0.9c0.1-0.3-0.1-0.5-0.2-0.7c-0.3,0.1-0.6,0.2-0.8,0.4c-0.5,0.3-0.9,0.5-1.3,0.8c-0.2,0.1-0.4,0.2-0.6,0.4
			c-0.4,0.5-0.7,1-0.8,1.6c0,0.1,0,0.2-0.1,0.3l-0.3,0.9c-0.1,0.6-0.3,1.1-0.6,1.6c-0.1,0.1-0.1,0.3-0.1,0.4c0,0.1,0,0.3-0.1,0.3
			c-0.4,0.3-0.8,0.5-1.2,0.7c-0.5,0.2-0.8,0.6-0.9,1.1c-0.2,0.7-0.3,1.4-0.5,2.1c-0.1,0.7-0.3,1.3-0.5,1.9c0,0.1,0,0.3-0.1,0.4
			c-0.4,0.1-0.6,0.4-0.8,0.7c-0.2,0.2-0.4,0.4-0.7,0.5c-0.4,0.3-0.7,0.6-1,1c-0.4,0.4-0.9,0.7-1.3,1.1l-0.9,0.9
			c-0.3,0.2-0.6,0.4-0.9,0.7c-0.4,0.4-0.9,0.8-1.3,1.2c-0.4,0.3-0.8,0.6-1.1,1c-0.2,0.2-0.3,0.4-0.6,0.5c-0.2,0.1-0.4,0.2-0.6,0.2
			c-0.4,0-0.7,0.2-1.1,0.3c-0.2,0.1-0.4,0.1-0.6,0.1h-0.4c0,0-0.1,0.2-0.2,0.2c-0.5,0.4-0.9,0.9-1.1,1.5c-0.1,0.2-0.2,0.4-0.3,0.5
			c-0.3,0.1-0.4,0.4-0.6,0.6c-0.2,0.3-0.5,0.6-0.6,1c0,0,0,0.1-0.1,0.1l-0.6,0.6c-0.3,0.3-0.3,0.7-0.7,0.9c-0.1,0-0.1,0.2-0.1,0.3
			c0.1,0.3-0.1,0.6-0.2,0.8c-0.2,0.4-0.6,0.7-0.6,1.2c0,0,0,0.1-0.1,0.1c-0.4,0.2-0.5,0.6-0.6,0.9c-0.4,0.6-0.7,1.2-0.9,1.8
			c-0.1,0.3-0.2,0.6,0.1,1s0.6,0.9,0.9,1.3c0.1,0.2,0.3,0.4,0.6,0.3c0.7-0.2,1.4-0.3,2.1-0.5c0.1,0,0.3-0.1,0.4-0.1s0.2,0,0.2,0.1
			l0.3,0.6c0.1,0.3,0.3,0.4,0.6,0.4c0.3,0,0.5,0,0.8-0.1c0.3,0,0.4,0.1,0.4,0.3c0.1,0.2,0.1,0.4,0.2,0.6c0.1,0.2,0.2,0.3,0.4,0.2
			c0.2-0.1,0.7-0.1,1.1,0c0.4,0,0.7,0.1,1.1,0.2h0.1c0.5-0.2,1-0.5,1.5-0.8c0.4-0.2,0.7-0.6,1.2-0.5c0.1,0,0.2,0,0.2-0.1
			c0.2-0.2,0.5-0.4,0.7-0.7c0.2-0.4,0.6-0.5,0.9-0.8l0.6-0.6c0.1-0.1,0.3-0.3,0.5-0.3c0.3-0.1,0.7-0.2,1-0.2v-0.1
			c0-0.2-0.2-0.3,0.1-0.4c0,0.1,0,0.2,0.1,0.3h0.1c0-0.1-0.1-0.2-0.1-0.3c0-0.1-0.1-0.1,0-0.2c0.1-0.2,0.2-0.5,0.3-0.7
			c0-0.2,0-0.3,0.1-0.5h-0.1c0.2-0.2,0.3-0.4,0.5-0.7c0.2-0.3,0.3-0.6,0.5-0.9c0.2-0.4,0.4-0.7,0.6-1.1c0.4-0.8,0.7-1.6,1.1-2.5
			l0.6-1.8c0.1-0.2,0.2-0.5,0.2-0.7c0-0.4,0.2-0.8,0.3-1.1c0-0.1,0.1-0.3,0.3-0.4c0.4-0.2,0.5-0.8,1-1v-0.1c0.2-0.1,0.3-0.3,0.5-0.4
			c0.1-0.1,0.3-0.2,0.5-0.2h0.4l0.9,0.3l1.2,0.3c0.3,0,0.6,0.1,0.9,0c0.5-0.1,0.8-0.6,0.7-1.1c0-0.3-0.1-0.6-0.4-0.7
			c-0.3,0-0.3-0.2-0.3-0.4c-0.1-0.2-0.1-0.4-0.3-0.5c0,0-0.1-0.1-0.1-0.2c0.1-0.4,0.3-0.8,0.4-1.1c0.3-0.5,0.7-1,1.1-1.4
			c0.2-0.2,0.4-0.3,0.5-0.5c0.1-0.3,0.3-0.5,0.6-0.6c0.1-0.1,0.3-0.2,0.2-0.5v-0.2c0.1-0.3,0.2-0.7,0.2-1v-0.5
			c0.1-0.2,0.1-0.4,0.4-0.4c0.3,0,0.5-0.1,0.8-0.1c0,0,0.1,0,0.1-0.1c0.3-0.4,0.5-0.8,0.8-1.2c0.2-0.3,0.3-0.6,0.6-0.9
			c0.3-0.4,0.4-0.8,0.4-1.3c0.1-0.6,0.1-1.3,0.1-1.9v-0.1c0.1-0.5,0.2-1,0.2-1.5v-0.1C411.3-640,410.9-640.4,410.4-640.6
			L410.4-640.6z"/>
	</defs>
	<clipPath id="SVGID_14_">
		<use xlink:href="#SVGID_13_"  style="overflow:visible;"/>
	</clipPath>
	<g class="st6">
		<defs>
			<rect id="SVGID_15_" x="-402.1" y="-733.3" width="887.6" height="1578.7"/>
		</defs>
		<clipPath id="SVGID_16_">
			<use xlink:href="#SVGID_15_"  style="overflow:visible;"/>
		</clipPath>
		<rect x="367.4" y="-690.7" class="st7" width="76.2" height="99.3"/>
	</g>
</g>
<g>
	<defs>
		<path id="SVGID_17_" d="M219.3,113.9l0.9-7.8h0.2l0.9,7.8H219.3z M217.2,98.1l-3.6,24h4.8l0.4-3.9h3l0.4,3.9h5l-3.6-24H217.2z
			 M194.3,113.9l0.9-7.8h0.2l0.9,7.8H194.3z M192.2,98.1l-3.6,24h4.8l0.4-3.9h3l0.4,3.9h5l-3.6-24H192.2z M155.1,109.2h-0.3
			l-1.1-11.1h-3.6l-1.1,11.1h-0.3l-1.1-11.1H143l2.9,24h4.5l1.3-10.4h0.2l1.3,10.4h4.6l2.9-24h-4.4L155.1,109.2z M247.1,102.5h1.1
			c0.4,0,0.8,0.3,0.8,0.9V117c0,0.6-0.4,0.9-0.8,0.9h-1.1V102.5z M242.1,122.1h8.7l3.1-3.4v-17.3l-3.1-3.4h-8.7V122.1z M235.5,107.9
			h-0.3l-2.1-9.7h-4.8v24h4.7v-10.3h0.3l2.5,10.3h4.3v-24h-4.7V107.9z M203.5,98.1v24h9v-4.6h-4V98.1H203.5z M178,122.1h9.4v-4.6
			H183v-5.2h4v-4.6h-4v-4.9h4.4v-4.6H178V122.1z M166.2,102.7h4.8l-4.8,15.1v4.2h10.2v-4.6h-4.7l4.7-15v-4.3h-10.2V102.7z
			 M132.1,122.1h9.5v-4.6h-4.5v-5.2h4.1v-4.6h-4.1v-4.9h4.5v-4.6h-9.5V122.1z M125.6,107.9h-0.3l-2.1-9.7h-4.8v24h4.7v-10.3h0.3
			l2.5,10.3h4.3v-24h-4.7V107.9z M103.6,122.1h9.4v-4.6h-4.5v-5.2h4.1v-4.6h-4.1v-4.9h4.5v-4.6h-9.4V122.1z M96.6,107.5
			c0,0.6-0.4,0.9-0.8,0.9h-1v-5.9h1c0.4,0,0.8,0.3,0.8,0.9V107.5z M101.6,101.5l-3.1-3.4h-8.7v24h5V113h1c0.4,0,0.8,0.3,0.8,0.9v6
			l0.3,2.3h5l-0.3-2.6V113l-2.2-2.3l2.2-2.3V101.5z M76,98.1v20.6l3.1,3.4h5.6l3.1-3.4V98.1h-5v18.8c0,0.6-0.4,1-0.8,1h-0.4
			c-0.4,0-0.8-0.4-0.8-1V98.1H76z M69.4,108.5c0,0.6-0.4,0.9-0.8,0.9h-1v-6.9h1c0.4,0,0.8,0.3,0.8,0.9V108.5z M62.5,98.1v24h5v-8.5
			h3.7l3.1-3.4v-8.8l-3.1-3.4H62.5z M31,103.3c0-0.6,0.4-1,0.8-1h0.4c0.4,0,0.8,0.4,0.8,1v13.5c0,0.6-0.4,1-0.8,1h-0.4
			c-0.4,0-0.8-0.4-0.8-1V103.3z M34.8,122.1l3.1-3.4v-17.3l-3.1-3.4h-5.6l-3.1,3.4v17.3l3.1,3.4H34.8z M19.1,116.9
			c0,0.6-0.4,1-0.8,1h-0.4c-0.4,0-0.8-0.4-0.8-1v-13.5c0-0.6,0.4-1,0.8-1h0.4c0.4,0,0.8,0.4,0.8,1V116.9z M15.3,98.1l-3.1,3.4v17.3
			l3.1,3.4H21l3.1-3.4v-17.3L21,98.1H15.3z M5.2,122.1h5v-24H7.6l-1.7,1.8H3v4.7h2.2V122.1z M40.9,122.5l-0.3,0.1l0.1,0.5l-0.5,0.7
			l0.2,0.1l1.1-0.3l0.2-0.5l-0.2-0.1L40.9,122.5z M56.8,120.2v-6.4l-1.9-1.9h-3.1l-1.9,1.9v6.4l1.9,1.9h3.1L56.8,120.2z M53.9,118.6
			c0,0.5-0.2,0.9-0.5,0.9c-0.4,0-0.5-0.3-0.5-0.9v-3.2c0-0.5,0.2-0.9,0.5-0.9c0.4,0,0.5,0.3,0.5,0.9V118.6z M44,121.1l0.5-0.2v-0.5
			l0.6-1.5l0.5-1.6l0.7-0.7l0.7,0.2l0.4-0.1l0.1-0.4l-0.4-0.6l0.2-0.4l0.7-1l0.1-0.7l0.4-0.2l0.4-1.2l-0.1-0.4l0.1-0.4l-0.1-0.2
			l0.1-0.5l-0.5-0.2l-0.9,0.6v-0.5l-0.3-0.2l-0.2,0.1v-0.1l0.1-0.3l0.1-0.2l-0.1-0.3l-1,0.9l-0.4,1.6l-0.6,0.5l-0.4,1.5l-2.7,2.8
			l-0.9,0.3l-1.2,1.8l-0.8,2l0.4,0.7l0.9-0.3l0.3,0.4h0.5v0.3l0.9,0.1l0.9-0.5L44,121.1z M39.5,100.1v6.4l1.9,1.9h3.1l1.9-1.9v-6.4
			l-1.9-1.9h-3.1L39.5,100.1z M42.4,101.7c0-0.5,0.2-0.9,0.5-0.9c0.4,0,0.5,0.3,0.5,0.9v3.2c0,0.5-0.2,0.9-0.5,0.9
			c-0.4,0-0.5-0.3-0.5-0.9V101.7z M54.8,104.5l0.2-0.9l-0.5-0.6l-1.5,1l-1.1-0.4l-0.5-1.9l-0.8,0.1l0.1,1l-0.2,0.2l-0.5-0.9l0.2-0.8
			l-0.4-1.3l-1.2-1.1h-0.8L47,97.8l-0.6,0.4l0.9,1.1v0.4l2.4,4l-0.1,1.3l-0.4,1.4l-1,0.8v0.6l1.5,0.8l0.4,0.7l-0.9,1.8l0.3,0.4H50
			l0.3,0.4l0.7-0.5l1.2-2l0.6-1.5l-0.2-0.4l0.4-0.9h0.6l0.1,0.4l0.5-0.3v-0.9l0.4-0.3L54.8,104.5z"/>
	</defs>
	<clipPath id="SVGID_18_">
		<use xlink:href="#SVGID_17_"  style="overflow:visible;"/>
	</clipPath>
	<g class="st8">
		<defs>
			<rect id="SVGID_19_" x="-586.3" y="-58.4" width="887.6" height="1578.7"/>
		</defs>
		<clipPath id="SVGID_20_">
			<use xlink:href="#SVGID_19_"  style="overflow:visible;"/>
		</clipPath>
		<rect x="-8.8" y="86" class="st9" width="274.6" height="49.7"/>
	</g>
</g>
<g>
	<defs>
		<path id="SVGID_21_" d="M206.2,83.9c-0.2-0.1-0.7-0.1-0.8,0c-0.1,0.1,0,0.3,0,0.5c0,0.1,0.1,0.2,0.1,0.2v0.5l-0.9,1.2
			c-0.1,0.1-0.2,0.2-0.1,0.3c-0.1,0.1,0.1,0.2,0.1,0.2h0.1l2.4-0.6c0.1,0,0.1-0.1,0.2-0.2c0.1-0.2,0.2-0.5,0.3-0.7
			c0-0.1,0-0.2-0.1-0.3C207.1,84.6,206.6,84.3,206.2,83.9L206.2,83.9z M253.6,28.8c-0.1-0.2-0.4-0.2-0.5-0.4
			c-0.1-0.3-0.4-0.3-0.7-0.4h-0.1c-0.2-0.3-0.6-0.3-0.8-0.2c-0.4,0.1-1,0-1.3,0.5h-0.1c-0.3,0.2-0.6,0.3-0.8,0.5
			c-0.2,0.3-0.6,0.3-0.9,0.5c-0.2,0.2-0.5,0.3-0.8,0.5c-0.2,0.1-0.3,0.2-0.5,0.2c-0.4,0.1-0.8,0.1-1.2-0.2c-0.2-0.1-0.4-0.2-0.6-0.2
			c-0.5-0.1-0.9-0.3-1.3-0.5c-0.2-0.1-0.3-0.3-0.4-0.5c-0.1-0.4-0.2-0.9-0.3-1.3c-0.3-1.1-0.5-2.2-0.8-3.3c-0.1-0.6-0.4-0.8-1-0.7
			c-0.4,0.1-0.8,0.1-1.2,0.2c-0.2,0-0.3,0.1-0.3,0.3v1.6c0.1,0.6-0.2,0.9-0.7,1.2l-0.1-0.1c-0.4-0.6-0.7-1.2-1.1-1.9
			c-0.1-0.2-0.2-0.4-0.1-0.5c0-0.4,0.2-0.7,0.2-1.1c0.1-0.4,0.2-0.8,0.1-1.2c-0.1-0.7-0.2-1.3-0.3-2c-0.1-0.4-0.1-0.7-0.2-1.1
			c-0.1-0.6-0.3-1.1-0.8-1.5c-0.4-0.2-0.7-0.5-1-0.8c-0.3-0.2-0.5-0.5-0.7-0.8c-0.1-0.2-0.2-0.4-0.4-0.5c-0.2-0.2-0.4-0.4-0.7-0.5
			c-0.4-0.2-0.8-0.1-1.3-0.1h-1.5c-0.1,0-0.1-0.3-0.1-0.4c0-0.1,0-0.1-0.1-0.2c0.1-0.2,0-0.6-0.3-0.9c-0.4-0.5-0.5-1.1-1-1.5
			c-0.2-0.2-0.7-0.2-0.9,0.1c-0.1,0.3-0.3,0.4-0.6,0.5c-0.4,0.2-0.5,0.4-0.2,0.8c0.2,0.2,0.4,0.5,0.6,0.7c0.4,0.3,0.7,0.7,1.1,1.1
			c0.2,0.2,0.5,0.4,0.5,0.7c0.1,0.3,0.1,0.7,0.1,1v0.4c0.2,0.4,0.4,0.8,0.6,1.1c0.4,0.7,1,1.3,1.2,2.1c0,0.1,0.1,0.1,0.1,0.2
			c0.3,0.5,0.7,0.9,0.9,1.5c0.1,0.3,0.3,0.6,0.4,0.8s0.3,0.3,0.4,0.5L234,23c0.2,1,0.9,1.7,1.3,2.6c0.1,0.3,0.3,0.6,0.5,0.9
			c0.2,0.3,0.4,0.7,0.6,1c0.4,0.5,0.6,1.1,0.4,1.8l-0.3,2.1c-0.1,0.5-0.2,1.1-0.4,1.6c-0.3,0.7-0.6,1.5-0.9,2.2
			c-0.1,0.3-0.1,0.7-0.6,0.8c0,0-0.1,0.1-0.1,0.2s-0.1,0.2-0.2,0.2c-0.4,0.2-0.8,0.5-1.2,0.7l-0.6,0.3c-0.3,0.2-0.5,0.5-0.8,0.7
			c-0.1,0.1-0.2,0.3-0.2,0.4c0,0.2-0.1,0.4,0,0.6c0,0.3,0,0.7,0.1,1c0.2,0.3,0.6,0.6,0.9,0.9c0.2,0.1,0.4,0.2,0.7,0.3
			c0.2,0.1,0.4,0.2,0.7,0.4c0.4,0.3,1,0.3,1.4,0.7c0.2,0.2,0.6,0.3,0.7,0.7c0.5,0.3,0.7,0.8,0.9,1.3c0.1,0.1,0.1,0.4,0.1,0.5
			c-0.1,0.4-0.3,0.7-0.5,1c-0.2,0.4-0.6,0.8-0.7,1.3c0,0,0,0.1-0.1,0.1l-0.6,0.9c-0.1,0.1-0.1,0.3-0.2,0.4c0,0.1-0.1,0.2-0.1,0.3
			c0,0.1-0.1,0.1-0.1,0.1c-0.3,0.6-0.3,1.2,0,1.8c0.1,0.3,0.3,0.5,0.6,0.4c0.3,0,0.5,0,0.8-0.1c0.4,0,0.8,0,1,0.4
			c0.1,0.3,0.3,0.4,0.7,0.3c0.6-0.2,1.1-0.4,1.7-0.7c0.2-0.1,0.4-0.2,0.4-0.3c0.3-0.7,0.9-1,1.1-1.7c0.3-0.4,0.5-0.7,0.8-1.1
			c0.3-0.4,0.6-0.9,0.9-1.3c0.2-0.2,0.4-0.5,0.5-0.7c0.3-0.4,0.5-0.9,0.8-1.4c0.3-0.5,0.6-1.1,0.9-1.6c0.3-0.5,0.5-1.1,0.8-1.6
			c0.1-0.2,0.1-0.4,0-0.7s-0.3-0.6-0.3-0.9c0.1-0.8,0.6-1.5,1-2.2c0-0.1,0.2-0.1,0.3-0.1c0.5,0,1.1,0,1.6,0.1c0.4,0,0.6,0.2,0.4,0.5
			c0.1,0.1,0.2,0.1,0.2,0.2c0.1,0.3,0.3,0.3,0.5,0.3c0.2-0.1,0.4-0.1,0.6-0.2c0.4-0.2,0.6-0.5,0.5-0.9v-1.1c0-0.6,0.2-1,0.8-1.3
			c0.5-0.2,0.8-0.5,0.9-1c0.1-0.6,0.2-1.1,0.4-1.7c0.3-0.8,0.6-1.7,0.9-2.4C254,29.6,253.9,29.2,253.6,28.8L253.6,28.8z M232.6,49.4
			c-0.5-0.2-0.9-0.4-1.3,0.1c-0.2,0.2-0.5,0.5-0.9,0.4h-0.1l-0.9,0.6c-0.1,0.1-0.3,0.1-0.4,0.1c-0.1-0.1-0.1-0.3-0.1-0.4
			c0.2-0.6-0.1-1.3-0.9-1.3c-0.2,0-0.3-0.1-0.3-0.3c0.1-0.3,0.1-0.6,0.2-0.9c0.1-0.3-0.1-0.5-0.2-0.7c-0.3,0.1-0.6,0.2-0.8,0.4
			c-0.5,0.3-0.9,0.5-1.3,0.8c-0.2,0.1-0.4,0.2-0.6,0.4c-0.4,0.5-0.7,1-0.8,1.6c0,0.1,0,0.2-0.1,0.3l-0.3,0.9
			c-0.1,0.6-0.3,1.1-0.6,1.6c-0.1,0.1-0.1,0.3-0.1,0.4c0,0.1,0,0.3-0.1,0.3c-0.4,0.3-0.8,0.5-1.2,0.7c-0.5,0.2-0.8,0.6-0.9,1.1
			c-0.2,0.7-0.3,1.4-0.5,2.1c-0.1,0.7-0.3,1.3-0.5,1.9c0,0.1,0,0.3-0.1,0.4c-0.4,0.1-0.6,0.4-0.8,0.7c-0.2,0.2-0.4,0.4-0.7,0.5
			c-0.4,0.3-0.7,0.6-1,1c-0.4,0.4-0.9,0.7-1.3,1.1l-0.9,0.9c-0.3,0.2-0.6,0.4-0.9,0.7c-0.4,0.4-0.9,0.8-1.3,1.2
			c-0.4,0.3-0.8,0.6-1.1,1c-0.2,0.2-0.3,0.4-0.6,0.5c-0.2,0.1-0.4,0.2-0.6,0.2c-0.4,0-0.7,0.2-1.1,0.3c-0.2,0.1-0.4,0.1-0.6,0.1
			h-0.4c0,0-0.1,0.2-0.2,0.2c-0.5,0.4-0.9,0.9-1.1,1.5c-0.1,0.2-0.2,0.4-0.3,0.5c-0.3,0.1-0.4,0.4-0.6,0.6c-0.2,0.3-0.5,0.6-0.6,1
			c0,0,0,0.1-0.1,0.1l-0.6,0.6c-0.3,0.3-0.3,0.7-0.7,0.9c-0.1,0-0.1,0.2-0.1,0.3c0.1,0.3-0.1,0.6-0.2,0.8c-0.2,0.4-0.6,0.7-0.6,1.2
			c0,0,0,0.1-0.1,0.1c-0.4,0.2-0.5,0.6-0.6,0.9c-0.4,0.6-0.7,1.2-0.9,1.8c-0.1,0.3-0.2,0.6,0.1,1s0.6,0.9,0.9,1.3
			c0.1,0.2,0.3,0.4,0.6,0.3c0.7-0.2,1.4-0.3,2.1-0.5c0.1,0,0.3-0.1,0.4-0.1s0.2,0,0.2,0.1l0.3,0.6c0.1,0.3,0.3,0.4,0.6,0.4
			c0.3,0,0.5,0,0.8-0.1c0.3,0,0.4,0.1,0.4,0.3c0.1,0.2,0.1,0.4,0.2,0.6c0.1,0.2,0.2,0.3,0.4,0.2c0.2-0.1,0.7-0.1,1.1,0
			c0.4,0,0.7,0.1,1.1,0.2h0.1c0.5-0.2,1-0.5,1.5-0.8c0.4-0.2,0.7-0.6,1.2-0.5c0.1,0,0.2,0,0.2-0.1c0.2-0.2,0.5-0.4,0.7-0.7
			c0.2-0.4,0.6-0.5,0.9-0.8l0.6-0.6c0.1-0.1,0.3-0.3,0.5-0.3c0.3-0.1,0.7-0.2,1-0.2v-0.1c0-0.2-0.2-0.3,0.1-0.4c0,0.1,0,0.2,0.1,0.3
			h0.1c0-0.1-0.1-0.2-0.1-0.3s-0.1-0.1,0-0.2c0.1-0.2,0.2-0.5,0.3-0.7c0-0.2,0-0.3,0.1-0.5h-0.1c0.2-0.2,0.3-0.4,0.5-0.7
			c0.2-0.3,0.3-0.6,0.5-0.9c0.2-0.4,0.4-0.7,0.6-1.1c0.4-0.8,0.7-1.6,1.1-2.5l0.6-1.8c0.1-0.2,0.2-0.5,0.2-0.7
			c0-0.4,0.2-0.8,0.3-1.1c0-0.1,0.1-0.3,0.3-0.4c0.4-0.2,0.5-0.8,1-1v-0.1c0.2-0.1,0.3-0.3,0.5-0.4c0.1-0.1,0.3-0.2,0.5-0.2h0.4
			l0.9,0.3l1.2,0.3c0.3,0,0.6,0.1,0.9,0c0.5-0.1,0.8-0.6,0.7-1.1c0-0.3-0.1-0.6-0.4-0.7c-0.3,0-0.3-0.2-0.3-0.4
			c-0.1-0.2-0.1-0.4-0.3-0.5c0,0-0.1-0.1-0.1-0.2c0.1-0.4,0.3-0.8,0.4-1.1c0.3-0.5,0.7-1,1.1-1.4c0.2-0.2,0.4-0.3,0.5-0.5
			c0.1-0.3,0.3-0.5,0.6-0.6c0.1-0.1,0.3-0.2,0.2-0.5v-0.2c0.1-0.3,0.2-0.7,0.2-1v-0.5c0.1-0.2,0.1-0.4,0.4-0.4
			c0.3,0,0.5-0.1,0.8-0.1c0,0,0.1,0,0.1-0.1c0.3-0.4,0.5-0.8,0.8-1.2c0.2-0.3,0.3-0.6,0.6-0.9c0.3-0.4,0.4-0.8,0.4-1.3
			c0.1-0.6,0.1-1.3,0.1-1.9V52c0.1-0.5,0.2-1,0.2-1.5v-0.1C233.5,50,233.1,49.6,232.6,49.4L232.6,49.4z"/>
	</defs>
	<clipPath id="SVGID_22_">
		<use xlink:href="#SVGID_21_"  style="overflow:visible;"/>
	</clipPath>
	<g class="st10">
		<defs>
			<rect id="SVGID_23_" x="-579.9" y="-43.3" width="887.6" height="1578.7"/>
		</defs>
		<clipPath id="SVGID_24_">
			<use xlink:href="#SVGID_23_"  style="overflow:visible;"/>
		</clipPath>
		<rect x="189.6" y="-0.7" class="st11" width="76.2" height="99.3"/>
	</g>
</g>
</svg>
