<?xml version="1.0" encoding="utf-8"?>
<!-- Generator: Adobe Illustrator 22.0.1, SVG Export Plug-In . SVG Version: 6.00 Build 0)  -->
<svg version="1.1" id="Layer_1" xmlns="http://www.w3.org/2000/svg" xmlns:xlink="http://www.w3.org/1999/xlink" x="0px" y="0px"
	 viewBox="0 0 32.2 30.4" style="enable-background:new 0 0 32.2 30.4;" xml:space="preserve">
<style type="text/css">
	.st0{fill:#FFFFFF;}
</style>
<g>
	<g>
		<line class="st0" x1="4.3" y1="3.4" x2="27.8" y2="26.9"/>
		<path class="st0" d="M27.8,29.9c-0.8,0-1.5-0.3-2.1-0.9L2.2,5.6C1,4.4,1,2.5,2.2,1.3c1.2-1.2,3.1-1.2,4.2,0L30,24.8
			c1.2,1.2,1.2,3.1,0,4.2C29.4,29.6,28.6,29.9,27.8,29.9z"/>
	</g>
	<g>
		<line class="st0" x1="4.3" y1="26.9" x2="27.8" y2="3.4"/>
		<path class="st0" d="M4.3,29.9c-0.8,0-1.5-0.3-2.1-0.9C1,27.9,1,26,2.2,24.8L25.7,1.3c1.2-1.2,3.1-1.2,4.2,0
			c1.2,1.2,1.2,3.1,0,4.2L6.5,29.1C5.9,29.6,5.1,29.9,4.3,29.9z"/>
	</g>
</g>
</svg>
